<svg width="315" height="39" viewBox="0 0 315 39" fill="none" xmlns="http://www.w3.org/2000/svg">
<path d="M9 3C9 1.34315 10.3431 0 12 0H14C15.6569 0 17 1.34315 17 3V5C17 6.65685 15.6569 8 14 8H12C10.3431 8 9 6.65685 9 5V3Z" fill="#FFAE0C"/>
<path d="M18 12C18 10.3431 19.3431 9 21 9H23C24.6569 9 26 10.3431 26 12V14C26 15.6569 24.6569 17 23 17H21C19.3431 17 18 15.6569 18 14V12Z" fill="#FFAE0C"/>
<path d="M9 34C9 32.3431 10.3431 31 12 31H14C15.6569 31 17 32.3431 17 34V36C17 37.6569 15.6569 39 14 39H12C10.3431 39 9 37.6569 9 36V34Z" fill="#FFAE0C"/>
<path d="M0 14V12C0 10.3431 1.34315 9 3 9H14C15.6569 9 17 10.3431 17 12V27C17 28.6569 15.6569 30 14 30H12C10.3431 30 9 28.6569 9 27V17H3C1.34315 17 0 15.6569 0 14Z" fill="#FFAE0C"/>
<path d="M57.0341 31H60.5361L51.9001 6.996H48.3641L39.7281 31H43.1961L45.5761 24.098H54.6201L57.0341 31ZM50.1661 10.294C50.1661 10.294 50.6761 12.47 51.0841 13.694L53.7361 21.31H46.4601L49.1461 13.694C49.5541 12.47 50.0981 10.294 50.0981 10.294H50.1661ZM62.1657 22.398C62.1657 27.566 65.9737 31.408 71.3797 31.408C75.8677 31.408 78.2477 28.654 78.2477 28.654L76.9217 26.24C76.9217 26.24 74.8137 28.552 71.6177 28.552C68.0477 28.552 65.5317 25.866 65.5317 22.364C65.5317 18.828 68.0477 16.244 71.5157 16.244C74.4397 16.244 76.2757 18.216 76.2757 18.216L77.8397 15.904C77.8397 15.904 75.6977 13.388 71.3797 13.388C65.9737 13.388 62.1657 17.298 62.1657 22.398ZM82.6974 24.71C82.6974 30.456 87.0834 31.136 89.2934 31.136C89.9734 31.136 90.4494 31.068 90.4494 31.068V28.144C90.4494 28.144 90.1434 28.212 89.6674 28.212C88.4094 28.212 85.9954 27.77 85.9954 24.336V16.686H90.1434V14.034H85.9954V9.07H82.7994V14.034H80.4534V16.686H82.6974V24.71ZM94.135 10.362H97.467V6.996H94.135V10.362ZM94.169 31H97.467V13.796H94.169V31ZM106.716 31H110.524L116.882 13.796H113.414L109.232 25.424C108.892 26.376 108.654 27.77 108.62 27.77H108.552C108.518 27.77 108.314 26.376 107.974 25.424L103.792 13.796H100.29L106.716 31ZM118.512 22.398C118.512 27.498 122.218 31.408 127.624 31.408C131.738 31.408 134.288 28.96 134.288 28.96L132.928 26.546C132.928 26.546 130.786 28.552 127.828 28.552C124.768 28.552 122.082 26.648 121.912 22.874H134.458C134.458 22.874 134.56 21.888 134.56 21.446C134.56 16.992 131.976 13.388 127.114 13.388C122.218 13.388 118.512 16.924 118.512 22.398ZM122.014 20.392C122.49 17.57 124.53 16.006 127.046 16.006C129.256 16.006 131.092 17.434 131.194 20.392H122.014ZM137.61 18.862C137.61 25.9 142.676 31.408 149.884 31.408C155.902 31.408 159.2 27.6 159.2 27.6L157.398 25.186C157.398 25.186 154.508 28.314 149.986 28.314C144.648 28.314 141.078 23.962 141.078 18.828C141.078 13.728 144.58 9.648 149.952 9.648C154.1 9.648 156.888 12.266 156.888 12.266L158.554 9.75C158.554 9.75 155.596 6.588 149.816 6.588C142.846 6.588 137.61 11.892 137.61 18.862ZM163.099 31H166.397V22.942C166.397 22.126 166.465 21.344 166.669 20.664C167.383 18.182 169.525 16.414 172.109 16.414C174.863 16.414 175.373 18.318 175.373 20.732V31H178.671V19.984C178.671 15.598 176.801 13.388 172.755 13.388C169.321 13.388 167.145 15.564 166.397 17.23H166.329C166.329 17.23 166.397 16.618 166.397 15.802V6.996H163.099V31ZM183.585 31H186.883V23.962C186.883 22.908 186.985 21.854 187.291 20.868C188.073 18.318 190.011 16.822 192.119 16.822C192.629 16.822 193.071 16.924 193.071 16.924V13.66C193.071 13.66 192.663 13.592 192.221 13.592C189.569 13.592 187.563 15.564 186.781 18.08H186.713C186.713 18.08 186.781 17.502 186.781 16.788V13.796H183.585V31ZM196.301 10.362H199.633V6.996H196.301V10.362ZM196.335 31H199.633V13.796H196.335V31ZM203.408 28.892C203.408 28.892 205.72 31.408 209.936 31.408C213.71 31.408 216.158 29.266 216.158 26.41C216.158 20.766 207.318 21.446 207.318 18.352C207.318 16.856 208.712 16.244 210.14 16.244C212.86 16.244 214.39 17.774 214.39 17.774L215.716 15.292C215.716 15.292 213.948 13.388 210.174 13.388C206.74 13.388 203.952 15.156 203.952 18.284C203.952 23.894 212.792 23.248 212.792 26.41C212.792 27.804 211.364 28.552 209.936 28.552C206.944 28.552 205.006 26.546 205.006 26.546L203.408 28.892ZM220.756 24.71C220.756 30.456 225.142 31.136 227.352 31.136C228.032 31.136 228.508 31.068 228.508 31.068V28.144C228.508 28.144 228.202 28.212 227.726 28.212C226.468 28.212 224.054 27.77 224.054 24.336V16.686H228.202V14.034H224.054V9.07H220.858V14.034H218.512V16.686H220.756V24.71ZM232.194 10.362H235.526V6.996H232.194V10.362ZM232.228 31H235.526V13.796H232.228V31ZM239.3 26.172C239.3 29.606 242.19 31.408 245.148 31.408C249.262 31.408 250.656 28.008 250.656 28.008H250.724C250.724 28.008 250.656 28.586 250.656 29.368V31H253.716V20.12C253.716 15.768 251.268 13.388 246.916 13.388C242.972 13.388 240.49 15.428 240.49 15.428L241.85 17.842C241.85 17.842 243.992 16.176 246.644 16.176C248.82 16.176 250.418 17.128 250.418 19.95V20.256H249.67C246.78 20.256 239.3 20.494 239.3 26.172ZM242.632 26.002C242.632 22.908 247.12 22.738 249.602 22.738H250.452V23.282C250.452 25.832 248.65 28.756 245.862 28.756C243.72 28.756 242.632 27.396 242.632 26.002ZM258.657 31H261.955V22.942C261.955 22.092 262.023 21.31 262.227 20.63C262.941 18.148 265.049 16.414 267.667 16.414C270.421 16.414 270.931 18.318 270.931 20.732V31H274.229V19.984C274.229 15.598 272.359 13.388 268.313 13.388C264.573 13.388 262.533 15.836 261.853 17.332H261.785C261.785 17.332 261.853 16.754 261.853 16.074V13.796H258.657V31ZM279.11 10.362H282.442V6.996H279.11V10.362ZM279.144 31H282.442V13.796H279.144V31ZM288.324 24.71C288.324 30.456 292.71 31.136 294.92 31.136C295.6 31.136 296.076 31.068 296.076 31.068V28.144C296.076 28.144 295.77 28.212 295.294 28.212C294.036 28.212 291.622 27.77 291.622 24.336V16.686H295.77V14.034H291.622V9.07H288.426V14.034H286.08V16.686H288.324V24.71ZM297.382 37.086C297.382 37.086 298.776 38.14 300.714 38.14C303.128 38.14 305.236 36.746 306.29 34.094L314.348 13.796H310.778L306.596 25.084C306.29 25.968 306.018 27.124 306.018 27.124H305.95C305.95 27.124 305.644 25.934 305.304 25.05L300.986 13.796H297.28L304.488 30.796L303.638 32.768C302.992 34.332 301.87 35.284 300.544 35.284C299.49 35.284 298.538 34.57 298.538 34.57L297.382 37.086Z" fill="#212336"/>
</svg>
