<?xml version="1.0" encoding="utf-8"?>
<!-- Generator: Adobe Illustrator 25.3.1, SVG Export Plug-In . SVG Version: 6.00 Build 0)  -->
<svg version="1.1" id="Layer_1" xmlns="http://www.w3.org/2000/svg" xmlns:xlink="http://www.w3.org/1999/xlink" x="0px" y="0px"
	 viewBox="0 0 2188.4 960" style="enable-background:new 0 0 2188.4 960;" xml:space="preserve">
<style type="text/css">
	.st0{fill-rule:evenodd;clip-rule:evenodd;fill:none;}
	.st1{fill-rule:evenodd;clip-rule:evenodd;fill:url(#SVGID_1_);}
	.st2{fill-rule:evenodd;clip-rule:evenodd;fill:url(#SVGID_2_);}
	.st3{fill-rule:evenodd;clip-rule:evenodd;fill:url(#SVGID_3_);}
	.st4{fill-rule:evenodd;clip-rule:evenodd;fill:url(#SVGID_4_);}
	.st5{fill-rule:evenodd;clip-rule:evenodd;fill:url(#SVGID_5_);}
	.st6{fill-rule:evenodd;clip-rule:evenodd;fill:url(#SVGID_6_);}
	.st7{fill-rule:evenodd;clip-rule:evenodd;fill:url(#SVGID_7_);}
	.st8{fill-rule:evenodd;clip-rule:evenodd;fill:#8E969C;}
	.st9{fill:#00A94F;}
	.st10{fill:#8E969C;}
	.st11{fill-rule:evenodd;clip-rule:evenodd;fill:url(#SVGID_8_);}
	.st12{fill-rule:evenodd;clip-rule:evenodd;}
	.st13{fill-rule:evenodd;clip-rule:evenodd;fill:#00A94F;}
	.st14{fill:#A1A7AD;}
	.st15{fill-rule:evenodd;clip-rule:evenodd;fill:#A1A7AD;}
</style>
<path class="st0" d="M1710.6,819c-11.5,6.2-17.2,18.4-19.4,33.6c7.3-4.9,30.8-20.6,22.1-33.1C1712.3,819.3,1711.5,819.1,1710.6,819z
	"/>
<path class="st0" d="M1369.8,826.6c-2.1,0.6-4.2,1.3-6.2,1.9c-11.8,6.5-19.4,18.7-24.7,31.7c-2.3,5.5-5.4,15.3-0.2,20.2
	c16.8,0.1,32.2-18.2,36.5-31.2c1.2-3.5,4.5-19.6,0.2-22.1C1374.3,826.4,1371.5,826.6,1369.8,826.6z"/>
<path class="st0" d="M1369.8,826.6c-2.1,0.6-4.2,1.3-6.2,1.9c-11.8,6.5-19.4,18.7-24.7,31.7c-2.3,5.5-5.4,15.3-0.2,20.2
	c16.8,0.1,32.2-18.2,36.5-31.2c1.2-3.5,4.5-19.6,0.2-22.1C1374.3,826.4,1371.5,826.6,1369.8,826.6z"/>
<g>
	<linearGradient id="SVGID_1_" gradientUnits="userSpaceOnUse" x1="1084.2439" y1="192.5627" x2="1084.2439" y2="458.6506">
		<stop  offset="0" style="stop-color:#619970"/>
		<stop  offset="1" style="stop-color:#274A71"/>
	</linearGradient>
	<path class="st1" d="M1438.5,196.5c-30.6,6.6-61.3,13.1-91.9,19.7c-20.3,129.2-132.2,228-267.1,228
		c-135.8,0-248.2-100.1-267.5-230.4c-27.7-7.1-55.5-14.2-83.2-21.3c42.2,78.3,84.5,156.7,126.7,235c35.4,6.3,77.2,13.8,112.8,19.1
		c19.2,2.8,100.1,11.3,111.6,12c74.3-10.7,148.6-21.4,222.8-32.1c34.1-58,68.3-116.1,102.4-174.2c8.1-13.8,16.2-27.6,24.2-41.3
		c2.2-3.6,6-13.7,10.3-14.2C1439.3,196.7,1438.9,196.6,1438.5,196.5z"/>
	<linearGradient id="SVGID_2_" gradientUnits="userSpaceOnUse" x1="1300.9312" y1="226.1243" x2="1300.9312" y2="462.2073">
		<stop  offset="0" style="stop-color:#619970"/>
		<stop  offset="1" style="stop-color:#274A71"/>
	</linearGradient>
	<path class="st2" d="M1482.6,226.1c-17.2,2.4-34.5,4.8-51.7,7.3c-40.5,69.1-81,138.1-121.5,207.2c-4.2,2.1-11.3,1-16.6,1.9
		c-13.9,1.4-27.7,2.7-41.6,4.1c-44.3,4.3-88.6,8.7-133,13c19,0.3,38.1,0.7,57.1,1c49.8,0.5,99.7,1.1,149.5,1.6
		c3.5-1.8,9.6-13.8,12.1-17.6c10.3-15.4,20.7-30.8,31.1-46.3c38.5-57.3,77.1-114.7,115.6-172c0-0.1,0-0.2,0-0.2
		C1483.3,226.1,1483,226.1,1482.6,226.1z"/>
	<linearGradient id="SVGID_3_" gradientUnits="userSpaceOnUse" x1="860.2075" y1="221.0341" x2="860.2075" y2="466.8047">
		<stop  offset="0" style="stop-color:#619970"/>
		<stop  offset="1" style="stop-color:#274A71"/>
	</linearGradient>
	<path class="st3" d="M735.1,229.9c-17.6-2.9-35.3-5.9-52.9-8.8c49.6,80.3,99.3,160.6,148.9,241c3.5,1.7,11.1,0.7,15.6,0.8
		c12.6,0.2,25.3,0.4,37.9,0.7c51.2,1.1,102.4,2.3,153.6,3.4c0-0.1,0-0.2,0-0.2c-63.2-8.4-126.5-16.8-189.7-25.2
		C810.7,370.9,772.9,300.4,735.1,229.9z"/>
	<linearGradient id="SVGID_4_" gradientUnits="userSpaceOnUse" x1="1335.5574" y1="265.1552" x2="1335.5574" y2="496.9661">
		<stop  offset="0" style="stop-color:#619970"/>
		<stop  offset="1" style="stop-color:#274A71"/>
	</linearGradient>
	<path class="st4" d="M1518.4,265.2c-16,0.3-32,0.6-48,0.8c-44.8,69.1-89.6,138.1-134.4,207.2c-62.8-1.7-125.6-3.3-188.3-5
		c67.4,9.6,134.7,19.2,202.1,28.7c57.7-77,115.5-154,173.3-231c0.2-0.2,0.3-0.3,0.5-0.5C1521.8,265.4,1520.1,265.3,1518.4,265.2z"/>
	<linearGradient id="SVGID_5_" gradientUnits="userSpaceOnUse" x1="825.6084" y1="258.2195" x2="825.6084" y2="495.8755">
		<stop  offset="0" style="stop-color:#619970"/>
		<stop  offset="1" style="stop-color:#274A71"/>
	</linearGradient>
	<path class="st5" d="M729.9,322c-8.6-14.5-17.3-28.9-25.9-43.4c-2.6-4.4-7-15-10.7-17.7c-17.8-0.9-35.7-1.7-53.5-2.6
		c54.9,79,109.9,158,164.9,236.9c3.9,1.9,11.3-0.3,15.1-0.9c13.6-1.4,27.3-2.9,40.9-4.3c50.3-5.1,100.5-10.2,150.8-15.4
		c-63.8-0.6-127.7-1.1-191.5-1.7C789.9,422.5,759.9,372.2,729.9,322z"/>
	<linearGradient id="SVGID_6_" gradientUnits="userSpaceOnUse" x1="1363.6188" y1="308.1894" x2="1363.6188" y2="533.2621">
		<stop  offset="0" style="stop-color:#619970"/>
		<stop  offset="1" style="stop-color:#274A71"/>
	</linearGradient>
	<path class="st6" d="M1508.6,308.2c-50.8,66.4-101.5,132.8-152.3,199.2c-63.3-10.1-126.7-20.1-190.1-30.2c2.9,2.9,9.7,2.7,14.1,4.1
		c14.1,3.9,28.2,7.9,42.3,11.8c47.9,13.4,95.9,26.8,143.8,40.2c47.3-53.2,94.7-106.4,142-159.5c12.4-13.9,24.8-27.9,37.2-41.8
		c3.1-3.8,14.3-13.6,15.4-17.7C1543.5,312.2,1526.1,310.2,1508.6,308.2z"/>
	<linearGradient id="SVGID_7_" gradientUnits="userSpaceOnUse" x1="794.7546" y1="301.6433" x2="794.7546" y2="531.3264">
		<stop  offset="0" style="stop-color:#619970"/>
		<stop  offset="1" style="stop-color:#274A71"/>
	</linearGradient>
	<path class="st7" d="M653.9,301.9c-0.6-0.1-1.1-0.2-1.7-0.3c-17,1.5-34,2.9-51,4.4c-0.1,0.1-0.2,0.2-0.2,0.2
		c62.3,75,124.6,150,186.9,225.1c36.9-9,73.8-17.9,110.6-26.9c21.3-5.1,42.6-10.3,63.9-15.4c4.8-1.3,23.6-4.3,26-6.5
		c-63,8-126.1,16-189.1,24.1C750.9,438.4,702.4,370.1,653.9,301.9z"/>
</g>
<path class="st0" d="M-199.9,208.3c0.3,0.2-1.2,2.6-1.5,3.2c-1.9,3.3-3.7,6.6-5.6,9.9c-7.8,13.9-15.6,27.7-23.4,41.6
	c-33.3,59-66.5,117.9-99.8,176.9c-74.5,12-149,24.1-223.5,36.1c-18.7-0.8-37.4-1.6-56.1-2.4c-5.7-0.2-11.5-0.4-17.2-0.6
	c-50-8-100-16-150-24.1c-17-30.3-34-60.5-51-90.8c-18.5-33-37.1-66-55.6-99c-5.5-9.9-11.1-19.8-16.6-29.6c-2.6-4.4-4.6-9.4-7.6-13.4
	c-36.3-8.8,314.1,74.5,314.1,74.5h40.1C-553.8,290.5-123.2,190.2-199.9,208.3z"/>
<path class="st0" d="M-153.1,236.5c0.1,0,0.2,0,0.3,0c0,0.1-0.1,0.2-0.1,0.3c-51.4,79.5-102.8,159-154.1,238.5
	c-69.3,0.4-138.7,0.8-208,1.2c47.6-5.5,95.2-11,142.9-16.5c11.7-1.4,23.5-2.7,35.2-4.1c2.2-0.4,12.7-0.9,13.5-1.7
	c39.4-69.8,78.8-139.7,118.1-209.6C-187.9,241.9-170.5,239.2-153.1,236.5z"/>
<path class="st0" d="M-954.2,245.2c17.6,2.6,35.2,5.2,52.7,7.7c39.1,69.9,78.2,139.9,117.3,209.8c63.8,7.3,127.5,14.6,191.3,21.9
	c-51.9-0.2-103.8-0.4-155.7-0.5c-12.8,0-25.6-0.1-38.3-0.1c-3.3,0-6.7,0-10,0c-1,0-3.1,0.3-3.7-0.2
	C-851.8,404.3-903,324.7-954.2,245.2z"/>
<path class="st0" d="M-113.9,274.9c0.6,0,1.1,0,1.7,0c-56.5,78.2-113,156.4-169.5,234.6c-67.8-8.4-135.7-16.8-203.5-25.1
	c47.1,0.5,94.3,1,141.5,1.5c12,0.1,23.9,0.2,35.9,0.3c2,0,11.3,0.6,12.1-0.1c43.5-69.8,87-139.7,130.5-209.6
	C-148.1,275.9-131,275.4-113.9,274.9z"/>
<path class="st0" d="M-995.9,283.2c17.9,0.5,35.9,1.1,53.8,1.6c43.4,69.9,86.7,139.9,130.1,209.8c64.1-0.6,128.2-1.2,192.3-1.8
	c-50.4,6.1-100.8,12.2-151.2,18.3c-13.2,1.6-26.5,3.2-39.7,4.8c-2.4,0.4-14.3,2.3-15.7,1.7C-882.9,439.5-939.4,361.4-995.9,283.2z"
	/>
<path class="st0" d="M-126.3,318c17.5,1.7,35,3.4,52.5,5.2c0,0.1,0,0.3,0,0.4c-63.6,74-127.2,147.9-190.8,221.9
	c-49.1-12.8-98.2-25.6-147.4-38.3c-13-3.4-25.9-6.7-38.9-10.1c-2.7-0.8-13.8-2.8-15-4.1c63.5,9,127,18,190.5,27
	C-225.7,452.7-176,385.3-126.3,318z"/>
<path class="st0" d="M-981.5,326.4c0.3,0.1,0.5,0.1,0.8,0.2c49.6,67.4,99.2,134.8,148.9,202.1c62.9-9.1,125.8-18.2,188.7-27.3
	c0,0,0,0.1,0,0.1c-66.5,17.3-133.1,34.7-199.7,52c-63.6-73.9-127.3-147.7-191-221.6c0,0,0-0.1,0-0.1
	C-1016.4,330.1-998.9,328.2-981.5,326.4z"/>
<path class="st0" d="M-488.2,484c0.1,0,0.1,0,0.2,0C-488.1,484-488.1,484-488.2,484z"/>
<path class="st0" d="M-488,484.1c0.6,0.1,1.1,0.1,1.7,0.2C-486.9,484.3-487.6,484.3-488,484.1z"/>
<polygon class="st8" points="1257,232.8 1257,232.8 1257,232.8 "/>
<g>
	<g>
		<path class="st9" d="M1207.4,90.8c-6.2,3.6-12.5,7.2-18.7,10.8c-15.3,9-32.9,14.3-50.9,20.6c-2-6.6-4-13.3-6-19.9
			c-7.5-19.3-15.3-38.4-23.3-57.1c-4.4-10.3-8.8-20.6-13.2-31c7,37.4,14.1,74.9,21.1,112.3c0,0.3,0,0.6,0,1
			c-35.7,7.8-83.8,7.6-122.2,2.4c-0.6,4.2-1.1,8.3-1.7,12.5c0,0.1,0,0.2,0,0.2c13.7,2.8,27.9,3.9,42.2,6.2
			c6.6,0.4,13.1,0.8,19.7,1.2c8.2,0.2,16.3,0.3,24.5,0.5c5.6-0.3,11.2-0.6,16.8-1c8.1-1.1,16.2-2.2,24.2-3.4c2,12.5,4,25,6,37.4
			c1.1,9.4,2.2,18.7,3.4,28.1c0.9,12.3,1.8,24.6,2.6,37c0.2,6.9,0.5,13.8,0.7,20.6c0,7.4,0.1,15.5,0.1,22.8c0,3.8-0.1,6.9-0.1,10.8
			c-0.5,8.2-1,16.5-1.4,24.7c-0.6,7-1.3,14.1-1.9,21.1c-3.1,16.7-5.6,32.9-11.5,46.6c10.3-5.7,18.9-37.7,22.6-52.1
			c4.9-19.7,5.3-41.9,8.9-64.1c0.4-9.2,0.8-18.4,1.2-27.6c0-10,0-20,0-30c-0.4-9.4-0.8-18.7-1.2-28.1c-0.9-8.5-1.8-17-2.6-25.4
			c-1.5-9-3-18.1-4.6-27.1c16.6-3.2,38.7-12.8,51.8-20.4c5.9-3.6,11.8-7.2,17.8-10.8c1.3-2.3,0.6-6.5,1.2-9.6
			c1.1-6.5,2.6-12.1,5.5-16.6C1214.8,86,1211.1,88.4,1207.4,90.8z"/>
	</g>
	<g>
		<path class="st10" d="M1127.7,228.8c-9.2,2.8-17.5,3.7-27,5.6c-10.4,1-20.8,2.1-31.2,3.1c-5.5,0.1-11,0.2-16.6,0.2
			c-17.8,1.4-38.9-2.8-56.4-3.6c-0.5-4.2-1-8.3-1.4-12.5c9-4,16.4-9.5,20.2-18.7c8.4-20.8-8-42.4-25.2-44.4
			c-0.1-39,11.8-63.1,27.8-85.7c4.2-5.2,8.5-10.4,12.7-15.6c11.6,0.6,25.2,4,38.4,1.9c5-0.3,10.1-0.6,15.1-1
			c5.8-0.9,11.7-1.8,17.5-2.6c-0.6-3.9-1.1-7.8-1.7-11.8c-0.1-0.1-0.2-0.2-0.2-0.2c-6.3,1-12.6,2.1-19,3.1
			c-12.7,2.3-27.3,2-41.3,1.7c0-0.1,0-0.2,0-0.2c2.2-1.9,4.5-3.8,6.7-5.8c6.7-5.1,15.6-12.1,25.2-13.7c0-0.1,0-0.2,0-0.2
			c-11.6,1-25.7,8.9-34.1,14.2c-2.5,1.8-5,3.5-7.4,5.3c-4.3,1.4-21.8-2.1-26.6-2.6c0-0.1,0-0.2,0-0.2c4.6-2.7,9.3-5.4,13.9-8.2
			c13.6-8,39.3-19,58.1-20.6c0-0.1,0-0.2,0-0.2c-7.4,0.5-14.7,2.6-21.4,4.3c-13.7,3.5-26.6,6.4-38.9,11.3
			c-6.1,2.7-12.2,5.4-18.2,8.2c-2,1.2-4,2.4-6,3.6c-4.3-0.7-8.6-1.4-13-2.2c0-0.1,0-0.2,0-0.2c6.2-3.4,12.3-6.7,18.5-10.1
			c17.3-7.6,35.1-13.6,54.7-19.4c8.5-2.5,18.4-5.3,29-5.3c-3.8-1.5-11.8-0.1-15.6,0.5c-13.3,2.1-25.5,2.5-37.2,5.3
			c-41,9.7-71.4,24.6-99.4,46.6c-7.2,5.6-21.4,18-25,26.4c-22.5-4.3-37.6,2.1-44.9,19c-7.3,16.8,1.3,40.1,15.1,44.6
			c0.1,0.2,0.2,0.3,0.2,0.5c-3.3,2.5-6,4.1-7.9,7.9c-13.1,25.7,16.2,38.8,28.8,48.7c-10-1.5-17.5-3.7-24.2-7.9
			c0.1,19.1,6.3,35.3,12,49.9c2,5,4.6,9.9,5.8,15.6c2.7,13.3,0.5,31-1.7,43c-5.5,30.6-9.3,56.4-20.4,80.4c-10.7,2.1-32.8,0.5-35,11
			c16.5,0,33,0,49.4,0c-1-3.7-2.1-7.4-3.1-11c-0.9-5.1,0.8-10.1,1.7-13.9c2.1-9.4,4.2-18.7,6.2-28.1c2-11.8,4-23.7,6-35.5
			c2.3-14.5,4.6-29,7-43.4c0.1,0,0.2,0,0.2,0c2.8,7.6,12.9,14.9,14.9,21.8c1.1,7,2.2,14.1,3.4,21.1c3.6,16.7,6.4,32.9,11.5,48.2
			c1.9,5.9,10.4,27.1,6,33.6c0,0.1,0,0.2,0,0.2c10.3,0.1,20.6,0.2,31,0.2c1.4-1.8,3.3-3.7,3.8-6.2c-9-1.7-17.9-3.4-26.9-5
			c-7-25.7-18.9-51.3-19.7-83.5c0.1,0,0.2,0,0.2,0c1.9,3.9,10.1,9.7,13.7,12.5c10.9,8.6,21.8,16,34.3,23.3c3.7,2.2,8.2,5.5,12.7,6.5
			c0.4-7.2,1.3-16.8-1.4-22.6c-2.3-3.9-9.3-6.7-13-9.4c-7.4-5.3-14.5-12.2-19.9-19.4c9.6,3.9,19.2,7.8,28.8,11.8c0.1,0,0.2,0,0.2,0
			c-1-4.5-1.9-9-2.9-13.4c-1.3-1.7-5.7-1.9-7.9-2.6c-6.6-2.3-13.1-4.8-19-7.9c-18.1-9.5-25.7-18.6-32.9-39.1
			c-1.7-4.8-3.8-10.2-4.3-16.1c12,5.9,24.7,10.1,37.7,15.1c6.4,2.5,13.7,5.8,20.9,7c2.8,14.4,5.6,28.8,8.4,43.2
			c3.8,15.7,11.4,38.3,7.7,57.6c-2.5,13-5.4,25.4-10.1,36.2c-2.8,6.4-7.9,11.7-10.6,17.8c-0.3,0.3-0.6,0.6-1,1c0,0.1,0,0.2,0,0.2
			c15.9,0,31.8,0,47.8,0c0-0.1,0-0.2,0-0.2c-4-7.5-22.3-5.3-30.2-8.9c-2.1-9.4,3.2-20.1,5.5-27.6c1.7-6.9,3.4-13.8,5-20.6
			c1.1-4.2,3-14.4,9.4-12.7c4,1,10.9,12.3,13.4,15.8c8.2,11.6,15.2,23.8,22.6,36.5c3.1,5.4,6.8,11.4,8.6,17.8c12.8,0,25.6,0,38.4,0
			c-0.6-8.4-22.6-7.3-30.2-9.8c-4.3-1.4-8.6-6.9-11-10.3c-13.7-18.7-20.7-42.8-29.8-66.2c-6.6-17.1-15.5-43.1-16.1-64.8
			c8.1,2.3,17.2,1.2,26.2,2.6c6.7,0.3,13.4,0.6,20.2,1c5.8,0,11.5,0,17.3,0c4-0.1,42.9-2.7,62.1-7.5c0.2,0,5.3-1.5,5.5-1.5
			C1128.1,237,1128,232.7,1127.7,228.8z M875.7,137.2c-11.8-3.8-17.2-23.2-9.6-35.3c3.3-5.2,9-9.3,15.4-11.3c2-0.4,4-0.8,6-1.2
			c4.1,0,8.4-0.1,11.3,1C889.5,103.5,879.9,119.4,875.7,137.2z M995.3,50.3c8.4,0.8,15.8,4.8,24.7,5.3c-4.7,6.2-11.5,10.8-16.3,17
			c-11.6,14.9-21.2,31.3-28.6,50.6c-9.3-1.7-19.8-5.5-27.1-9.8c-3.2-2-6.4-4-9.6-6c-0.2-0.2-0.3-0.5-0.5-0.7
			c2.6-4.6,6.6-8.4,9.8-12.5c8.9-11.3,19.2-22.4,30.5-31.2C983.9,58.8,989.6,54.5,995.3,50.3z M962.1,51.7c4.3-3,8.6-6.1,13-9.1
			c3.2,1.3,6.4,2.6,9.6,3.8c-4.8,3.1-9.6,6.2-14.4,9.4l-35.5,30.7c-1.9,2.3-4.7,4.1-6,7c-0.2,0.1-0.3,0.2-0.5,0.2
			C933.5,77.6,949.7,61.1,962.1,51.7z M919.4,197.6c-5.1-4.1-8.3-10.2-13.2-14.4c1.5-23.5,11.1-42.5,19.7-59.3
			c12.6,4.1,29,13.4,43.9,14.2c-0.6,7.9-1.1,15.8-1.7,23.8c-10.8,3.8-19.1,26.1-13,40.3c4.5,10.6,13.1,10.4,13.7,25
			C949.9,219.3,934.2,209.5,919.4,197.6z M963.1,183.2c2.4-7,8-12.8,14.6-15.6c2.2-0.6,4.3-1.1,6.5-1.7c35.8-0.5,37.7,44.8,7.7,50.9
			C973.1,220.6,956.9,201.4,963.1,183.2z"/>
		<path class="st8" d="M1240.8,62.3c-6.4-4.9-12.1-10.7-18.7-15.4c-19.9-14-43.5-23.7-69.6-31.4c-10.7-3.2-23.9-7.2-36.5-7.4
			c7,1.9,14.1,3.8,21.1,5.8c10.9,3.4,21.5,9,32.2,11.8c0.1,0.2,0.2,0.3,0.2,0.5c-5.7,1.7-11.4,3.4-17,5c-10,3.1-19.7,5-30.2,7.7
			c-3.7,0.8-7.4,1.6-11,2.4c-0.1,0.2-0.2,0.3-0.2,0.5c1.5,3.5,3,7,4.6,10.6c16.1-2,31.2-10.5,43-17.8c4-2.6,8-5.1,12-7.7
			c1.5-0.9,15.3,6.9,17.8,8.2c11.8,6.2,36.3,22.2,40.3,34.8c0.9,2.9-1.3,5.4-1.9,7.2c21.6-16.2,49.6-8.8,58.8,13.4
			c2.7,6.5,3.6,17.2,1.2,25c-3.6,11.8-12.4,20.6-24.2,24.2c-21.4,6.6-44.5-9-47-25.7c-1,2.9,1.7,7,2.6,9.1
			c3.7,8.5,9.9,17.9,18.5,21.4c2.6,5.1,1.8,14.4,1.7,21.1c-3.8,5.3-9.3,9.9-14.4,13.9c-14.3,11.3-27.7,20.6-44.2,30.2
			c-6.1,3.6-16.3,9.7-23.8,11c0.2,4.5,0.3,9,0.5,13.4c30.6-12,57.1-25.9,82.8-42.5c0.8,25.7-3.5,48.2-10.8,67
			c-3,7.6-4.8,15.3-8.6,22.1c-9,16-24,30.4-38.6,40.8c-7,5-14.9,9.9-23,13.4c-3.8,1.5-7.7,3-11.5,4.6c-1.4,1-3.3,11.2-4.1,13.4
			c0,0.1,0,0.2,0,0.2c6.4-0.8,11.9-4,17-6.2c11.5-5,22.8-9.9,33.4-16.1c4.8-2.8,9.6-5.6,14.4-8.4c-7.1,15.8-11.7,32.5-19.2,47.3
			c-2,4-5.9,13.3-9.4,15.4c-11.2,6.6-30.6,1.9-38.6,12c0,0.1,0,0.2,0,0.2c16.6,0.1,33.1,0.2,49.7,0.2c1.4-6.1,2.9-12.2,4.3-18.2
			c4.7-12.5,9.4-25,14.2-37.4c3.4-9,6.7-18.1,10.1-27.1c5.5-6.5,17.3-12.7,20.9-20.4c0.2-0.1,0.3-0.2,0.5-0.2
			c0.1,34,14,65.7,23.5,91.9c-9.9,5.1-34.8,0.8-38.6,11.3c0,0.1,0,0.2,0,0.2c21,0,41.9,0,62.9,0c-3.2-3.7-6.4-7.4-9.6-11
			c-7.7-10.7-13.7-23-18-37.2c-3.3-11.1-3.5-23.2-5.5-36c-1.3-8.5-1.2-17.9-1.2-27.6c0.1-2.8,0.2-5.6,0.2-8.4
			c1.8-2.4,3.7-4.8,5.5-7.2c3.4-5.8,6.9-11.5,10.3-17.3c13.5-23.2,28.9-78.2,15.4-113.5c6.1-8,11.4-14.4,13.7-26.6
			C1303.8,82.2,1271.1,51.8,1240.8,62.3z M1276.1,169.1c0,0.3,0,0.6,0,0.8c0,0.2,0,0.3,0,0.5c0,0.3,0,0.5,0,0.8c0,0.2,0,0.4,0,0.5
			c0,0.3,0,0.5-0.1,0.8c0,0.2,0,0.4-0.1,0.6c0,0.3-0.1,0.6-0.1,0.8c0,0.2,0,0.4-0.1,0.5c0,0.3-0.1,0.6-0.1,0.9c0,0.1,0,0.3-0.1,0.4
			c-0.1,0.5-0.1,0.9-0.2,1.3c-0.1,0.9-0.3,1.8-0.4,2.7c-0.1,0.8-0.3,1.6-0.4,2.3c-0.1,0.7-0.2,1.3-0.3,1.7c-0.2,1.1-0.4,2.1-0.7,3.2
			c-0.6,2.7-1.2,5.4-1.9,8.2c-0.3,1.1-0.6,2.2-0.9,3.3c-0.2,0.5-0.3,1.1-0.5,1.6c0,0,0,0,0,0c-0.5,1.6-1,3.3-1.5,4.9
			c-0.4,1.1-0.7,2.1-1.1,3.2c0,0,0,0,0,0c0,0,0,0,0,0c-0.8,2.1-1.6,4.1-2.5,6.1c-0.5,1-0.9,1.9-1.4,2.9c-0.8,1.6-1.7,3-2.6,4.4
			c-0.1,0.1-0.2,0.3-0.3,0.4c-0.4,0.6-0.7,1.1-1.1,1.6c-0.6,0.8-1.2,1.5-1.8,2.3c-0.3,0.4-0.6,0.7-0.9,1c-0.4,0.5-0.8,0.9-1.3,1.3
			c-0.1,0.1-0.2,0.2-0.3,0.3c-0.4,0.4-0.9,0.8-1.3,1.2v0l0,0c0,0,0,0,0,0c0.3-1.9,0.7-3.8,1.1-5.7c0.2-0.9,0.4-1.9,0.5-2.8
			c0.1-0.5,0.2-1,0.3-1.5c0.1-0.7,0.3-1.3,0.4-2c0.1-0.6,0.2-1.3,0.4-1.9c0.1-0.4,0.2-0.8,0.2-1.2c0.1-0.6,0.2-1.2,0.3-1.7
			c0.1-0.4,0.1-0.8,0.2-1.2c0.1-0.6,0.2-1.2,0.3-1.8c0.1-0.4,0.1-0.8,0.2-1.1c0.1-0.6,0.2-1.3,0.3-1.9c0.1-0.3,0.1-0.7,0.2-1
			c0.2-1,0.3-1.9,0.5-2.9c0.2-1,0.3-1.9,0.4-2.9c0-0.3,0.1-0.6,0.1-0.9c0.1-0.7,0.2-1.3,0.3-2c0-0.4,0.1-0.8,0.1-1.1
			c0.1-0.6,0.1-1.2,0.2-1.8c0-0.4,0.1-0.8,0.1-1.2c0.1-0.6,0.1-1.2,0.2-1.8c0-0.4,0.1-0.8,0.1-1.2c0-0.6,0.1-1.2,0.1-1.9
			c0-0.4,0.1-0.8,0.1-1.2c0-0.7,0.1-1.4,0.1-2c0-0.3,0-0.7,0-1c0-1,0-2,0-3.1c0.5-0.7,1.1-1.4,1.7-2.1c1.2-1.4,2.5-2.7,3.8-4
			c1.3-1.3,2.6-2.6,3.9-3.9c0.6-0.6,1.1-1.2,1.7-1.8c0.2-0.2,0.3-0.4,0.5-0.5c0.4-0.5,0.8-0.9,1.2-1.4c0.2-0.2,0.3-0.4,0.5-0.6
			c0.5-0.7,1-1.3,1.5-2l0,0c0.1,0.2,0.2,0.5,0.2,0.8c0,0.1,0,0.2,0.1,0.3c0,0.2,0.1,0.4,0.1,0.7c0,0.1,0,0.2,0,0.3
			c0,0.3,0.1,0.7,0.1,1c0,0.4,0,0.8,0,1.2C1276.1,168.8,1276.1,168.9,1276.1,169.1z"/>
		<path class="st8" d="M1228.3,246.8c-0.4,2.5-12.3,12.2-15.1,14.4c-17.2,13.5-37.4,27.3-60.7,34.3c0.3-4.1,0.6-8.2,1-12.2
			c7.9-2.6,15.8-5.3,23.8-7.9c15.2-6,29.2-12.4,41.5-21.1C1221.9,252,1225.9,249.9,1228.3,246.8z"/>
		<path class="st8" d="M1129.4,289.5c0.2,4,0.4,10.8,0.2,11.8c-7.3,1.4-13.6,2.4-20.9,3.8c-17.6,3.5-49.4,5.1-68.6,1.9
			c-5.2-0.9-24.7-1.2-26.6-3.8c-1.3-3.9-2.6-7.8-3.8-11.8c6.3,0.9,12.6,1.8,19,2.6c21.6,3.9,49.5,3.8,71.3,0
			C1109.4,292.5,1115,293.4,1129.4,289.5z"/>
		<path class="st8" d="M999.3,330.8c5.3,0.6,15.2,16.2,18,20.6c-0.2,0-0.5,0-0.7,0c-3.9-1.2-21.7-6.3-22.6-8.9
			C995.7,338,996.8,334.2,999.3,330.8z"/>
		<path class="st8" d="M1026.2,337.8c8.6,2.1,17.3,5.4,26.4,7.7c23.5,5.9,51.7,5.3,74.4,0c-0.6,3.9-1.3,7.4-1.8,11.3
			c-6.2,0.9-11.1,1.7-17.3,2.6c-17.4,2.8-42.7,1.8-58.8-1.2c-5.3-1-11.3-0.7-15.6-2.9C1031.6,349.4,1028,344.1,1026.2,337.8z"/>
	</g>
</g>
<path class="st0" d="M1439.6,189.4c-0.2,0.2,0,0.6-1,0.2C1439,189.5,1439.3,189.4,1439.6,189.4z"/>
<path class="st0" d="M1437.7,189.8c0.3,0,0.6,0,1,0c0,0.1,0,0.2,0,0.2C1438.3,190,1438,189.9,1437.7,189.8z"/>
<path class="st0" d="M1436.7,190.1c0.3,0,0.6,0,1,0c0,0.1,0,0.2,0,0.2C1437.4,190.2,1437.1,190.2,1436.7,190.1z"/>
<polygon class="st0" points="1257,232.8 1257,232.8 1257,232.8 "/>
<path class="st0" d="M1257,232.8c0.1-0.3,0.1-0.6,0.2-1c0,0,0,0,0,0C1257.1,232.2,1257,232.5,1257,232.8z"/>
<path class="st0" d="M1257,232.8C1257,232.8,1257,232.8,1257,232.8C1257,232.8,1257,232.8,1257,232.8L1257,232.8z"/>
<linearGradient id="SVGID_8_" gradientUnits="userSpaceOnUse" x1="725.4995" y1="198.48" x2="725.4995" y2="198.48">
	<stop  offset="0" style="stop-color:#619970"/>
	<stop  offset="1" style="stop-color:#274A71"/>
</linearGradient>
<path class="st11" d="M725.1,198.5c0.2,0,0.5,0,0.7,0C725.6,198.5,725.4,198.5,725.1,198.5z"/>
<path class="st0" d="M1146.1,466.8c0.5,0.1,1,0.2,1.4,0.2c0,0.1,0,0.2,0,0.2c-0.1,0-0.2,0-0.2,0
	C1146.9,467.1,1146.5,467,1146.1,466.8z"/>
<g>
	<path class="st12" d="M88.9,590.6c8.1,0.4,15.2,1.5,21.8,3.1c0,0.3,0,0.6,0,1c-1,5.6-2.1,11.2-3.1,16.8c-0.1,0-0.2,0-0.2,0
		c-5.3-1.2-10.6-2.4-15.8-3.6c-5.2-0.9-12.5-0.4-17,0.5c-22.8,4.3-34.6,15.2-41.5,35c-3.1,8.8-5.1,23-2.6,34.3
		c1.5,6.9,3.5,13.6,6.7,19c9.1,15.4,21.2,24.4,42,28.3c4.7,0.9,11.4,1.6,16.8,0.7c8-1.3,15.3-3.3,22.6-4.6c0,0.9,0,1.8,0,2.6
		c-0.5,4.7-1,9.4-1.4,14.2c-6,1-12.2,2.5-18.7,3.6c-6,1-13.9,1-19.7,0c-7.6-1.2-13.9-1.1-20.4-3.1c-20.2-6.2-34-18.8-42-37.2
		c-5.1-11.6-9.2-30.4-5.5-47c1.9-8.8,4.4-17.2,8.4-24c9.9-17,24-29.9,44.6-36.2c5.2-1,10.4-1.9,15.6-2.9
		C82.5,590.9,85.7,590.7,88.9,590.6z"/>
	<path class="st13" d="M1160.3,659.2c-0.1-0.2-0.2-0.3-0.2-0.5c0.4-2,10.4-5.7,12.5-7.2c6.7-4.8,11-11.8,12.7-21.6
		c5.3-30.4-28.8-42-58.3-37.7c-6.8,0.2-13.6,0.3-20.4,0.5c-8.5,0-17,0-25.4,0c1.9,21.2,1.4,43.5,1.4,66c0,27.3,0.2,54.3-1.4,80.2
		c40.1,0.1,85.9,4.6,104.4-18.7C1204.6,696,1189.9,661,1160.3,659.2z M1125.3,613.1c17.3-0.2,27.1,2.7,29.8,17.3
		c0.8,4.7-0.4,9.5-2.2,12.5c-5.9,9.7-25.2,13.2-42,10.8c0-13.4-0.9-26.5-1.2-38.9C1114.9,614.2,1120.1,613.7,1125.3,613.1z
		 M1162.7,701.9c-3.5,13.4-14.8,13.7-29.5,16.1c-5.3,0.9-16.1,1.7-20.6-0.5c-2-1.6-0.5-8.6-1-11.8c-0.2-10.5-0.5-21-0.7-31.4
		c22.1-0.9,47.2-1.3,52.1,16.3C1163.9,693.9,1163.5,699,1162.7,701.9z"/>
	<path class="st13" d="M1800.1,592.7c-0.6,19-1.4,38.5-1.4,58.3c19,0,38.1,0,57.1,0c-0.5-19.4-1-38.9-1.4-58.3c10.6,0,21.3,0,31.9,0
		c-0.4,11.2-0.8,22.4-1.2,33.6c-0.2,10.9-0.3,21.8-0.5,32.6c0.1,8.6,0.2,17.1,0.2,25.7c0.3,14.1,0.6,28.2,1,42.2c0.2,4,0.3,8,0.5,12
		c-10.6,0-21.3,0-31.9,0c0.4-21.4,0.8-42.9,1.2-64.3c-18.9,0-37.8,0-56.6,0c0.4,21.4,0.8,42.9,1.2,64.3c-10.6,0-21.3,0-31.9,0
		c1.6-26,1.4-52.9,1.4-80.2c0-22.5,0.5-44.8-1.4-66C1778.9,592.7,1789.5,592.7,1800.1,592.7z"/>
	<path class="st13" d="M2047.6,651.3c-6.7-37.5-28.9-62.6-73.7-61.9c-2.3,0.2-4.6,0.5-7,0.7c-4.4,1.1-8.8,2.2-13.2,3.4
		c-21.3,8.4-37.3,25.4-44.4,48c-13.4,42.7,5.9,77.4,32.4,93.1c7.5,4.5,23.7,10.6,37.2,8.4c6.6-1.1,12.6-1.3,18.2-3.1
		c21.4-6.7,37.2-23.2,45.4-43.2c2.2-5.4,3.5-11.5,4.8-17.8C2049,670.7,2049.1,659.5,2047.6,651.3z M1980.6,718.2
		c-9.2,1.5-17.4-2.7-22.3-6c-15.9-10.5-27.1-35.6-20.2-63.1c3.5-14.1,11.7-27.3,24-32.6c3.2-0.9,6.4-1.8,9.6-2.6
		c24.8-0.2,37.2,13.2,43,31.7C2025.4,679.7,2009,713.6,1980.6,718.2z"/>
	<path class="st13" d="M1700.1,590.3c15.5-0.1,28.8,2.1,41.5,3.6c0,0.3,0,0.6,0,1c-1.4,8-2.7,16-4.1,24c-4.7-1.3-9.4-2.6-14.2-3.8
		c-15-3.2-48.6-3.9-45.1,14.9c2.5,13.5,20.6,17.3,31.9,22.1c17.7,7.5,33.8,17.4,38.4,37.9c6.4,28.4-12.6,44-31.9,49.7
		c-7.8,2.3-15.8,1.7-25.2,3.1c-9.4,1.4-40.9-1.7-45.1-5.3c1.8-8.2,3.7-16.5,5.5-24.7c0.1,0,0.2,0,0.2,0c13.5,5.9,40.7,9.4,57.4,3.6
		c7.4-2.6,13.5-9.3,9.1-19.4c-3.2-7.4-11.2-10.8-18.2-14.4c-13.3-6.8-27.2-12.1-38.2-20.9c-20.2-16.2-15.1-50.7,4.8-62.9
		c6.2-3.8,13.9-5.8,22.3-7.4C1692.9,591,1696.5,590.6,1700.1,590.3z"/>
	<path class="st12" d="M514.9,590.6c12.8-0.1,27.8-0.1,37.4,3.6c-0.9,5.9-1.8,11.8-2.6,17.8c-0.1,0-0.2,0-0.2,0
		c-17.6-4.5-55.6-12.1-63.4,6.7c-1.2,3-2.1,8.2-1,12.2c3.6,12.8,20,17.3,31.4,22.3c18.6,8.1,38.4,17.5,43.7,38.9
		c1.2,4.8,1.2,11.2,0.2,16.1c-4.8,25.6-25.1,34.3-55.2,34.3c-10.2,0-34.7-0.9-39.6-5c1.4-5.8,2.9-11.5,4.3-17.3
		c17.7,6.8,52,10.7,67.2-1.2c6.3-4.9,8.6-16.7,3.6-25c-7.2-12-24.9-17.7-38.2-23.5c-8.1-3.6-16.2-8.4-22.8-13.7
		c-20.4-16.3-13.2-48.1,6.2-59.5c5.2-3.1,11.8-4.7,18.7-6C508.2,591,511.6,590.8,514.9,590.6z"/>
	<path class="st13" d="M1800.1,592.7c-0.6,19-1.4,38.5-1.4,58.3c19,0,38.1,0,57.1,0c-0.5-19.4-1-38.9-1.4-58.3c10.6,0,21.3,0,31.9,0
		c-0.4,11.2-0.8,22.4-1.2,33.6c-0.2,10.9-0.3,21.8-0.5,32.6c0.1,8.6,0.2,17.1,0.2,25.7c0.3,14.1,0.6,28.2,1,42.2c0.2,4,0.3,8,0.5,12
		c-10.6,0-21.3,0-31.9,0c0.4-21.4,0.8-42.9,1.2-64.3c-18.9,0-37.8,0-56.6,0c0.4,21.4,0.8,42.9,1.2,64.3c-10.6,0-21.3,0-31.9,0
		c1.6-26,1.4-52.9,1.4-80.2c0-22.5,0.5-44.8-1.4-66C1778.9,592.7,1789.5,592.7,1800.1,592.7z"/>
	<path class="st13" d="M2113.3,592.2c-6.7,0.2-13.4,0.3-20.2,0.5c-8.6,0-17.3,0-25.9,0c1.9,20.9,1.4,43.1,1.4,65.3
		c-0.1,12.1-0.2,24.2-0.2,36.2c-0.4,14.6-0.8,29.3-1.2,43.9c0,0.2,0,0.5,0,0.7c10.6,0,21.1,0,31.7,0c-0.3-18.3-1.2-36.6-1.2-55.7
		c37,1.3,67.5-9.3,74.9-38.4C2182.1,607.5,2150.1,586.8,2113.3,592.2z M2142.1,649.4c-6.5,10.8-25.9,16.1-44.6,13.4
		c-0.2-12-0.5-24-0.7-36c-0.2-3.4-0.3-6.9-0.5-10.3c0-0.6,0-1.1,0-1.7c4.4-0.6,8.8-1.1,13.2-1.7c20.2-0.2,32.3,3.8,35.3,21.1
		C2145.7,639.8,2144.2,645.9,2142.1,649.4z"/>
	<path class="st12" d="M140.3,592.7c7.1,0,14.2,0,21.4,0c-0.3,20.3-1.4,41.3-1.4,62.4c22.6,0,45.1,0,67.7,0
		c-0.4-20.8-0.8-41.6-1.2-62.4c7.1,0,14.2,0,21.4,0c-3.3,12.7,0.6,28.9-1.4,42.7c0,18.6,0,37.3,0,55.9c0,4.2,0,8.3,0,12.5
		c0.5,11.7,1,23.4,1.4,35c-7.1,0-14.2,0-21.4,0c0.3-23.2,0.6-46.4,1-69.6c-22.4,0-44.8,0-67.2,0c0.4,23.2,0.8,46.4,1.2,69.6
		c-7.1,0-14.2,0-21.4,0c0.5-16.4,1-32.8,1.4-49.2c0-8.7,0-17.4,0-26.2C141.7,639.2,140.4,615.8,140.3,592.7z"/>
	<path class="st12" d="M418,592.7c7.1,0,14.2,0,21.4,0c-0.5,12.7-1,25.4-1.4,38.2c0,6.5,0,13,0,19.4c-0.1,8.1-0.2,16.2-0.2,24.2
		c0.6,21.4,1.1,42.9,1.7,64.3c-7.1,0-14.2,0-21.4,0c0.6-19.4,1.1-38.7,1.7-58.1c0-7.6,0-15.2,0-22.8
		C419.7,635.7,418.1,613.9,418,592.7z"/>
	<path class="st12" d="M680.3,608.6c-15.3-0.4-30.6-0.8-45.8-1.2c0,43.9,0.2,88.7,1,131.5c-6.9,0-13.8,0-20.6,0
		c0.5-21.9,1-43.8,1.4-65.8c-0.2-21.9-0.5-43.8-0.7-65.8c-15.6,0.5-31.2,1-46.8,1.4c0.2-5.4,0.5-10.7,0.7-16.1
		c37.2,0,74.4,0,111.6,0C680.8,598,680.5,603.3,680.3,608.6z"/>
	<path class="st12" d="M699,592.7c7.1,0,14.2,0,21.4,0c-0.5,12.7-1,25.4-1.4,38.2c0,6.5,0,13,0,19.4c-0.1,8.1-0.2,16.2-0.2,24.2
		c0.6,21.4,1.1,42.9,1.7,64.3c-7.1,0-14.2,0-21.4,0c0.6-19.4,1.1-38.7,1.7-58.1c0-7.6,0-15.2,0-22.8
		C700.7,635.7,699.2,613.9,699,592.7z"/>
	<path class="st12" d="M892.7,592.7c7.2,0,14.4,0,21.6,0c1.5,7.1,13.5,21.7,17.8,27.8c13.8,20.2,27.5,40.3,41.3,60.5
		c4,7,8,13.9,12,20.9c1,2,1.9,7.1,4.3,7.7c-0.6-9.7-1.1-19.4-1.7-29c-0.1-13-0.2-25.9-0.2-38.9c-0.5-16.3-1-32.6-1.4-49
		c6.4,0,12.8,0,19.2,0c0,0.1,0,0.2,0,0.2c-0.2,2.9-0.3,5.8-0.5,8.6c-1.7,11.6,0.6,24.6-1.2,36.7c0,16.2,0,32.3,0,48.5
		c0,4.2,0,8.5,0,12.7c0.6,13.1,1.1,26.2,1.7,39.4c-5.3,0-10.6,0-15.8,0c-1.8-2.8-3.5-5.6-5.3-8.4c-4.5-6.5-9-13-13.4-19.4
		c-14.6-20.6-29.4-40.9-43-62.4c-6.3-10.1-15-20.1-19-32.2c-0.4,0-0.8,0-1.2,0c0.9,14.5,1.8,29.6,2.2,44.9c0.2,13.7,0.3,27.4,0.5,41
		c0.4,12.2,0.8,24.3,1.2,36.5c-6.3,0-12.6,0-19,0c0.6-20.4,1.3-40.8,1.9-61.2c-0.1-10.2-0.2-20.5-0.2-30.7
		c-0.1-8.2-0.2-16.5-0.2-24.7C893.7,612.4,893.2,602.6,892.7,592.7z"/>
	<path class="st13" d="M1555.6,592.7c-0.4,19.4-0.8,38.9-1.2,58.3c8,0,11.8-7.4,15.4-12c8-10.3,16.2-20.7,23.5-31.7
		c2.1-3.4,4.2-6.7,6.2-10.1c0.6-1.5,1.1-3,1.7-4.6c11.2,0,22.4,0,33.6,0c-3,8.4-10,14.6-15.1,21.1c-9.5,12.1-23.7,30.4-36.5,38.6
		c0,0.6,0,1.3,0,1.9c6.8,2.4,12,10.5,16.1,15.8c11.3,14.7,21.3,30.4,31.2,46.6c3.3,5.5,10.9,14.9,11.5,22.1c-12.2,0-24.5,0-36.7,0
		c-0.3-6.7-5.3-12.8-8.2-17.5c-8.4-14.1-16.5-27.8-26.4-40.3c-4-5-7.1-10.2-16.3-10.1c0.4,22.6,0.8,45.3,1.2,67.9
		c-10.6,0-21.1,0-31.7,0c1.6-25.9,1.4-52.9,1.4-80.2c0-22.5,0.5-44.8-1.4-66C1534.5,592.7,1545,592.7,1555.6,592.7z"/>
	<path class="st0" d="M1971.7,613.8c-3.2,0.9-6.4,1.8-9.6,2.6c-12.3,5.3-20.5,18.5-24,32.6c-6.9,27.5,4.3,52.6,20.2,63.1
		c4.9,3.3,13.1,7.5,22.3,6c28.4-4.7,44.8-38.5,34.1-72.7C2008.9,627,1996.6,613.7,1971.7,613.8z"/>
	<path class="st13" d="M1347.3,651.3c-6.7-37.5-28.9-62.6-73.7-61.9c-2.3,0.2-4.6,0.5-7,0.7c-4.4,1.1-8.8,2.2-13.2,3.4
		c-21.3,8.4-37.3,25.4-44.4,48c-13.4,42.7,5.9,77.4,32.4,93.1c7.5,4.5,23.7,10.6,37.2,8.4c6.6-1.1,12.6-1.3,18.2-3.1
		c21.4-6.7,37.2-23.2,45.4-43.2c2.2-5.4,3.5-11.5,4.8-17.8C1348.7,670.7,1348.7,659.5,1347.3,651.3z M1280.3,718.2
		c-9.2,1.5-17.4-2.7-22.3-6c-15.9-10.5-27.1-35.6-20.2-63.1c3.5-14.1,11.7-27.3,24-32.6c3.2-0.9,6.4-1.8,9.6-2.6
		c24.8-0.2,37.2,13.2,43,31.7C1325.1,679.7,1308.7,713.6,1280.3,718.2z"/>
	<path class="st13" d="M1504.2,651.3c-6.7-37.5-28.9-62.6-73.7-61.9c-2.3,0.2-4.6,0.5-7,0.7c-4.4,1.1-8.8,2.2-13.2,3.4
		c-21.3,8.4-37.3,25.4-44.4,48c-13.4,42.7,5.9,77.4,32.4,93.1c7.5,4.5,23.7,10.6,37.2,8.4c6.6-1.1,12.6-1.3,18.2-3.1
		c21.4-6.7,37.2-23.2,45.4-43.2c2.2-5.4,3.5-11.5,4.8-17.8C1505.6,670.7,1505.7,659.5,1504.2,651.3z M1437.3,718.2
		c-9.2,1.5-17.4-2.7-22.3-6c-15.9-10.5-27.1-35.6-20.2-63.1c3.5-14.1,11.7-27.3,24-32.6c3.2-0.9,6.4-1.8,9.6-2.6
		c24.8-0.2,37.2,13.2,43,31.7C1482.1,679.7,1465.7,713.6,1437.3,718.2z"/>
	<path class="st13" d="M1700.1,590.3c15.5-0.1,28.8,2.1,41.5,3.6c0,0.3,0,0.6,0,1c-1.4,8-2.7,16-4.1,24c-4.7-1.3-9.4-2.6-14.2-3.8
		c-15-3.2-48.6-3.9-45.1,14.9c2.5,13.5,20.6,17.3,31.9,22.1c17.7,7.5,33.8,17.4,38.4,37.9c6.4,28.4-12.6,44-31.9,49.7
		c-7.8,2.3-15.8,1.7-25.2,3.1c-9.4,1.4-40.9-1.7-45.1-5.3c1.8-8.2,3.7-16.5,5.5-24.7c0.1,0,0.2,0,0.2,0c13.5,5.9,40.7,9.4,57.4,3.6
		c7.4-2.6,13.5-9.3,9.1-19.4c-3.2-7.4-11.2-10.8-18.2-14.4c-13.3-6.8-27.2-12.1-38.2-20.9c-20.2-16.2-15.1-50.7,4.8-62.9
		c6.2-3.8,13.9-5.8,22.3-7.4C1692.9,591,1696.5,590.6,1700.1,590.3z"/>
	<g>
		<path class="st12" d="M88.9,590.6c8.1,0.4,15.2,1.5,21.8,3.1c0,0.3,0,0.6,0,1c-1,5.6-2.1,11.2-3.1,16.8c-0.1,0-0.2,0-0.2,0
			c-5.3-1.2-10.6-2.4-15.8-3.6c-5.2-0.9-12.5-0.4-17,0.5c-22.8,4.3-34.6,15.2-41.5,35c-3.1,8.8-5.1,23-2.6,34.3
			c1.5,6.9,3.5,13.6,6.7,19c9.1,15.4,21.2,24.4,42,28.3c4.7,0.9,11.4,1.6,16.8,0.7c8-1.3,15.3-3.3,22.6-4.6c0,0.9,0,1.8,0,2.6
			c-0.5,4.7-1,9.4-1.4,14.2c-6,1-12.2,2.5-18.7,3.6c-6,1-13.9,1-19.7,0c-7.6-1.2-13.9-1.1-20.4-3.1c-20.2-6.2-34-18.8-42-37.2
			c-5.1-11.6-9.2-30.4-5.5-47c1.9-8.8,4.4-17.2,8.4-24c9.9-17,24-29.9,44.6-36.2c5.2-1,10.4-1.9,15.6-2.9
			C82.5,590.9,85.7,590.7,88.9,590.6z"/>
		<path class="st12" d="M514.9,590.6c12.8-0.1,27.8-0.1,37.4,3.6c-0.9,5.9-1.8,11.8-2.6,17.8c-0.1,0-0.2,0-0.2,0
			c-17.6-4.5-55.6-12.1-63.4,6.7c-1.2,3-2.1,8.2-1,12.2c3.6,12.8,20,17.3,31.4,22.3c18.6,8.1,38.4,17.5,43.7,38.9
			c1.2,4.8,1.2,11.2,0.2,16.1c-4.8,25.6-25.1,34.3-55.2,34.3c-10.2,0-34.7-0.9-39.6-5c1.4-5.8,2.9-11.5,4.3-17.3
			c17.7,6.8,52,10.7,67.2-1.2c6.3-4.9,8.6-16.7,3.6-25c-7.2-12-24.9-17.7-38.2-23.5c-8.1-3.6-16.2-8.4-22.8-13.7
			c-20.4-16.3-13.2-48.1,6.2-59.5c5.2-3.1,11.8-4.7,18.7-6C508.2,591,511.6,590.8,514.9,590.6z"/>
		<path class="st12" d="M385.3,714.2c-4.9-12.4-9.3-25.3-16.6-35.3c-3.7-5.1-9-10.6-16.3-12c-0.1-0.2-0.2-0.3-0.2-0.5
			c0.6-1.8,8.8-5.1,10.8-6.5c6-4.3,11.3-10.4,14.2-17.8c1.5-3.7,1.9-8,2.6-12.5c1-6.6-0.9-13.1-2.6-17.3
			c-11.1-26.7-56.7-19.9-92.9-19.7c0.2,21.4,1.7,43.3,1.7,65.8c0,7.6,0,15.2,0,22.8c-0.6,19.2-1.1,38.4-1.7,57.6c7,0,13.9,0,20.9,0
			c-0.3-20.2-1.5-41.4-1.4-62.4c13.3-0.2,29.8-1.7,39.6,2.6c13.6,6,18.8,29.6,24.5,44.2c1.8,5.1,3.5,10.2,5.3,15.4
			c7.3,0.1,14.6,0.2,21.8,0.2C391.7,730.6,388.5,722.4,385.3,714.2z M303.5,661.4c-0.1-11.2-0.2-22.4-0.2-33.6
			c-0.2-5.8-0.3-11.7-0.5-17.5c0-0.6,0-1.3,0-1.9c22.7-2.5,48.4-3.2,55.7,14.2c1.4,3.3,3,8.6,2.2,13.9
			C356.6,661.1,331.9,662,303.5,661.4z"/>
		<path class="st12" d="M140.3,592.7c7.1,0,14.2,0,21.4,0c-0.3,20.3-1.4,41.3-1.4,62.4c22.6,0,45.1,0,67.7,0
			c-0.4-20.8-0.8-41.6-1.2-62.4c7.1,0,14.2,0,21.4,0c-3.3,12.7,0.6,28.9-1.4,42.7c0,18.6,0,37.3,0,55.9c0,4.2,0,8.3,0,12.5
			c0.5,11.7,1,23.4,1.4,35c-7.1,0-14.2,0-21.4,0c0.3-23.2,0.6-46.4,1-69.6c-22.4,0-44.8,0-67.2,0c0.4,23.2,0.8,46.4,1.2,69.6
			c-7.1,0-14.2,0-21.4,0c0.5-16.4,1-32.8,1.4-49.2c0-8.7,0-17.4,0-26.2C141.7,639.2,140.4,615.8,140.3,592.7z"/>
		<path class="st12" d="M418,592.7c7.1,0,14.2,0,21.4,0c-0.5,12.7-1,25.4-1.4,38.2c0,6.5,0,13,0,19.4c-0.1,8.1-0.2,16.2-0.2,24.2
			c0.6,21.4,1.1,42.9,1.7,64.3c-7.1,0-14.2,0-21.4,0c0.6-19.4,1.1-38.7,1.7-58.1c0-7.6,0-15.2,0-22.8
			C419.7,635.7,418.1,613.9,418,592.7z"/>
		<path class="st12" d="M680.3,608.6c-15.3-0.4-30.6-0.8-45.8-1.2c0,43.9,0.2,88.7,1,131.5c-6.9,0-13.8,0-20.6,0
			c0.5-21.9,1-43.8,1.4-65.8c-0.2-21.9-0.5-43.8-0.7-65.8c-15.6,0.5-31.2,1-46.8,1.4c0.2-5.4,0.5-10.7,0.7-16.1
			c37.2,0,74.4,0,111.6,0C680.8,598,680.5,603.3,680.3,608.6z"/>
		<path class="st12" d="M699,592.7c7.1,0,14.2,0,21.4,0c-0.5,12.7-1,25.4-1.4,38.2c0,6.5,0,13,0,19.4c-0.1,8.1-0.2,16.2-0.2,24.2
			c0.6,21.4,1.1,42.9,1.7,64.3c-7.1,0-14.2,0-21.4,0c0.6-19.4,1.1-38.7,1.7-58.1c0-7.6,0-15.2,0-22.8
			C700.7,635.7,699.2,613.9,699,592.7z"/>
		<path class="st12" d="M863.7,704.1c-9.8-24.2-19.5-48.5-29.3-72.7c-3.4-8.2-6.3-16.6-9.6-25.2c-1.6-4-3.7-8.5-4.1-13.4
			c-8.7,0-17.4,0-26.2,0c-0.6,10.5-8.9,26.5-12.7,35.5c-10.2,24.6-20.5,49.1-30.7,73.7c-3.2,7.8-6.4,15.7-9.6,23.5
			c-1.7,4.1-4.1,8.6-4.8,13.4c7.6,0,15.2,0,22.8,0c0.3-12,5.4-22.8,8.9-32.6c1.6-4.6,3.2-9.3,4.8-13.9c0.9-1.3,13.2-0.7,16.1-0.7
			c16.3,0,32.6,0,49,0c1.5,4.3,3,8.6,4.6,13c2.2,7,4.3,14.1,6.5,21.1c1.2,4,2.9,8.1,2.9,13.2c7.9,0,15.8,0,23.8,0
			C875.1,728.4,867.4,713.1,863.7,704.1z M778.2,677c7.1-18,14.2-36,21.4-54c2-5,4.9-10.3,5.8-16.1c0.4,0,0.8,0,1.2,0
			c1.6,8.7,5.6,16.8,8.6,24.5c5.9,15.2,11.8,30.4,17.8,45.6C814.7,677,796.5,677,778.2,677z"/>
		<path class="st12" d="M892.7,592.7c7.2,0,14.4,0,21.6,0c1.5,7.1,13.5,21.7,17.8,27.8c13.8,20.2,27.5,40.3,41.3,60.5
			c4,7,8,13.9,12,20.9c1,2,1.9,7.1,4.3,7.7c-0.6-9.7-1.1-19.4-1.7-29c-0.1-13-0.2-25.9-0.2-38.9c-0.5-16.3-1-32.6-1.4-49
			c6.4,0,12.8,0,19.2,0c0,0.1,0,0.2,0,0.2c-0.2,2.9-0.3,5.8-0.5,8.6c-1.7,11.6,0.6,24.6-1.2,36.7c0,16.2,0,32.3,0,48.5
			c0,4.2,0,8.5,0,12.7c0.6,13.1,1.1,26.2,1.7,39.4c-5.3,0-10.6,0-15.8,0c-1.8-2.8-3.5-5.6-5.3-8.4c-4.5-6.5-9-13-13.4-19.4
			c-14.6-20.6-29.4-40.9-43-62.4c-6.3-10.1-15-20.1-19-32.2c-0.4,0-0.8,0-1.2,0c0.9,14.5,1.8,29.6,2.2,44.9
			c0.2,13.7,0.3,27.4,0.5,41c0.4,12.2,0.8,24.3,1.2,36.5c-6.3,0-12.6,0-19,0c0.6-20.4,1.3-40.8,1.9-61.2
			c-0.1-10.2-0.2-20.5-0.2-30.7c-0.1-8.2-0.2-16.5-0.2-24.7C893.7,612.4,893.2,602.6,892.7,592.7z"/>
	</g>
	<path class="st13" d="M1555.6,592.7c-0.4,19.4-0.8,38.9-1.2,58.3c8,0,11.8-7.4,15.4-12c8-10.3,16.2-20.7,23.5-31.7
		c2.1-3.4,4.2-6.7,6.2-10.1c0.6-1.5,1.1-3,1.7-4.6c11.2,0,22.4,0,33.6,0c-3,8.4-10,14.6-15.1,21.1c-9.5,12.1-23.7,30.4-36.5,38.6
		c0,0.6,0,1.3,0,1.9c6.8,2.4,12,10.5,16.1,15.8c11.3,14.7,21.3,30.4,31.2,46.6c3.3,5.5,10.9,14.9,11.5,22.1c-12.2,0-24.5,0-36.7,0
		c-0.3-6.7-5.3-12.8-8.2-17.5c-8.4-14.1-16.5-27.8-26.4-40.3c-4-5-7.1-10.2-16.3-10.1c0.4,22.6,0.8,45.3,1.2,67.9
		c-10.6,0-21.1,0-31.7,0c1.6-25.9,1.4-52.9,1.4-80.2c0-22.5,0.5-44.8-1.4-66C1534.5,592.7,1545,592.7,1555.6,592.7z"/>
	<path class="st0" d="M805.3,606.9c-0.8,5.8-3.8,11.1-5.8,16.1c-7.1,18-14.2,36-21.4,54c18.2,0,36.5,0,54.7,0
		c-5.9-15.2-11.8-30.4-17.8-45.6c-3-7.7-7.1-15.7-8.6-24.5C806.1,606.9,805.7,606.9,805.3,606.9z"/>
	<path class="st0" d="M1125.3,613.1c-5.2,0.6-10.4,1.1-15.6,1.7c0.3,12.4,1.2,25.5,1.2,38.9c16.8,2.4,36.1-1.1,42-10.8
		c1.8-2.9,3-7.8,2.2-12.5C1152.4,615.8,1142.5,612.9,1125.3,613.1z"/>
	<path class="st0" d="M1125.3,613.1c-5.2,0.6-10.4,1.1-15.6,1.7c0.3,12.4,1.2,25.5,1.2,38.9c16.8,2.4,36.1-1.1,42-10.8
		c1.8-2.9,3-7.8,2.2-12.5C1152.4,615.8,1142.5,612.9,1125.3,613.1z"/>
</g>
<path class="st0" d="M691.8,820.2c-13.7,8.9-22.8,24.5-30,39.8c-2.6,5.5-6.5,14.7-2.2,20.9c5.9,1.8,10.6-1.8,14.4-4.3
	c8.1-5.4,27.6-21.9,29.8-31.9C694.8,841.8,707.1,820.7,691.8,820.2z"/>
<g>
	<path class="st14" d="M1767.7,904.1c-2.1-11.7-13.6-19.4-21.4-25.7c-2.5-2-5.8-4.6-7-7.9c4.9-6.3,12.6-10,16.3-17.5
		c1.9-3.7,0.9-8.9-2.9-9.8c-8.7-2.1-21,17-23,23.3c-0.7,2.2,0,6.5-1,8.6c-2.2,2.1-4.5,4.2-6.7,6.2c-8.4,6.8-15.9,14.5-25.9,19.9
		c-11.2,6.1-40.5,14.2-40.3-8.2c2.7-1.9,5.4-3.8,8.2-5.8c9.4-7.1,21.7-16.2,26.4-27.8c4.6-11.4-1.2-23.2-13.2-23
		c-5.4,2.4-9.5,3.2-13.7,6.5c-14.5,11.5-31.8,59.6-7.7,73.9c7.8,4.6,21.1,3.1,29.3,0.2c15-5.3,26.5-14.8,36.7-25
		c3.2-3.5,6.4-7,9.6-10.6c2,2.2,4,4.3,6,6.5c5.4,4.3,15.6,9.3,17.3,17c1.9,8.8-6,14.5-11.8,16.1c-2.9,0.8-6.3-0.1-8.4,1.4
		c-2.6,1.9-4.2,9.2-0.7,11.5c3.5,3.3,11.3-0.3,14.2-1.7C1755.5,928.7,1770,916.7,1767.7,904.1z M1675.6,848c0.9,0.2,1.8,0.3,2.6,0.5
		c8.7,12.5-14.8,28.2-22.1,33.1C1658.4,866.3,1664.1,854.1,1675.6,848z"/>
	<path class="st0" d="M1675.6,848c-11.5,6.2-17.2,18.4-19.4,33.6c7.3-4.9,30.8-20.6,22.1-33.1C1677.3,848.3,1676.5,848.1,1675.6,848
		z"/>
	<path class="st14" d="M1623.5,858.3c-16.3,6.8-21.4,20.6-31.2,33.6c0,0.2,0,0.3,0,0.5c-1.6-4.3,2.3-33.1,3.4-34.8
		c1.1-2,2.8-5.6-0.7-6.2c-1.8,0.8-3.7,2.3-4.6,4.1c-1.4,0.5-2.7-0.8-5-0.2c-6,1.4-6.7,6.7-6.5,14.4c-6.1,8.6-14.8,18.1-24.2,23.3
		c-6.2,3.3-13.1,2.9-16.3-2.9c-4.8-8.7-1.4-26.5,0.7-36c1-4.5,2.2-8.5,0.7-12.5c-10.6-6.2-11.8,11.9-14.4,18
		c-7.1,16.6-22.4,39.6-41.3,43.9c-8.7,2-9.9-7.9-8.6-15.8c1.6-10.1,4.1-18.8,6.2-27.6c1-3.9-0.8-7.9-3.8-8.6
		c-7.2-1.7-7.5,10.7-9.8,14.4c-1.8,1.8-3.5,3.5-5.3,5.3c-4.2,5.2-9,10.2-14.2,14.4c-2.7,2.2-5.1,6.2-9.4,6.7
		c-2.1-2.2-4.2-4.5-6.2-6.7c-7.3-5.7-16.1-10.2-20.4-19c0.7-5,23.5-19.6,10.3-24.7c-3.7-1.4-6.6,2-8.4,3.4
		c-5,3.9-15.4,17.3-11.8,27.6c-5.4,8.3-20.2,19.6-30,23.5c-8,3.2-16,1.9-19.7-4.3c-5.9-9.9,0.7-23.5,2.2-33.6
		c1.4-9.6-9.7-15.5-20.6-13.4c-14.8,2.7-26.9,15.5-33.8,26.4c-1.9,3.5-3.8,7-5.8,10.6c-4.6,6.7-22.8,18.5-31,22.1
		c-12.3,5.4-35.2,8.1-35-10.8c2.7-1.9,5.4-3.8,8.2-5.8c9.4-7.1,21.7-16.2,26.4-27.8c4.6-11.4-1.2-23.2-13.2-23
		c-5.4,2.4-9.5,3.2-13.7,6.5c-12.8,10.1-31.2,55.8-10.8,71.8c22.3,17.4,51-8.1,63.8-17.5c-2.3,17,4.8,29.5,21.4,22.8
		c13.3-5.4,19.9-15.8,30.2-23.8c1.9,11,14.9,17.3,28.1,13.2c16.9-5.2,26.3-19,37.9-29.5c8.2,6.1,28.1,15.5,17.5,29.5
		c-5,6.7-14.9,9.1-21.1,14.6c-1.8,1.6-5.4,4.4-3.6,7.9c4,8.5,17.5-1.2,20.6-3.6c6.3-5,11.7-11.9,16.8-18.2c6.2-6,12.5-12,18.7-18
		c2.8-3,5.6-5.9,8.4-8.9c-0.4,9.8-1.7,20.6,3.1,26.9c4.5,5.8,15.2,5.5,22.3,2.4c11.1-4.8,29.2-21.7,34.1-32.4
		c0.4-0.1,0.8-0.2,1.2-0.2c0.3,2.8,0.6,5.6,1,8.4c1.1,5.3,2.9,9.9,5.8,13.4c3.7,4.7,13,6.8,20.2,3.8c8.7-3.6,17.2-11.3,22.8-18.2
		c1.8-2.1,3.5-4.2,5.3-6.2c-0.1,14.5-4.1,39.7,2.4,48.7c10,2.5,9.1-8.1,11-15.1c4.4-16,11.4-29.4,23-38.2c4.3-3.2,9.8-6.2,15.4-7.9
		c3.9-1.2,10.1-1.7,11.8-5C1647.6,854.7,1628.1,856.4,1623.5,858.3z M1250.3,846c0.6,0.1,1.3,0.2,1.9,0.2c4.4,1.8,3.3,9,1.4,12.7
		c-5.1,10-15.1,14.6-21.6,22.8c-0.3,0-0.6,0-1,0C1232,866.1,1239.8,852.4,1250.3,846z M1340.1,878.2c-4.2,13-19.7,31.3-36.5,31.2
		c-5.1-4.9-2-14.6,0.2-20.2c5.3-13,13-25.2,24.7-31.7c2.1-0.6,4.2-1.3,6.2-1.9c1.8-0.1,4.5-0.3,5.5,0.5
		C1344.5,858.6,1341.2,874.7,1340.1,878.2z"/>
	<path class="st14" d="M1017.7,896.2c-4.9,2.7-8.8,6.7-14.2,8.9c-16.4,6.6-26.4-2.9-29.3-15.8c-1.5-6.7,1.3-28.1-1.2-30.2
		c-8-1.5-13.5,3.4-17.3,7.2c-9.3,10.6-18.6,21.1-27.8,31.7c0.5-12.8,2.8-23.6,5.3-34.8c0.8-3.5,2.9-10.7,1-14.2
		c-2.5-5.1-10.2-1.2-12,1.7c-2.7,4.5-0.2,15.7-2.4,19.2c-3.4,3.2-6.9,6.4-10.3,9.6c-10.1,8.2-18.2,18.6-31,24.2
		c-11.2,4.9-31.9,7.3-31.9-9.6c3-2.4,5.9-4.8,8.9-7.2c9-7,20.3-16.2,25-27.4c3.5-8.4,1.2-19.5-4.8-23.3c-7.8-4.9-16.5,2.1-21.1,5.8
		c-12.1,9.7-20.8,27.6-20.4,49.4c-2.7,2.9-7.6,4.6-11.5,6.2c-4.9,2.1-15.2,5.9-21.4,2.2c-6.3-3.8-9.8-18.1-7.9-29.5
		c2.3-15.6,4.6-31.2,7-46.8c1.3-6.6,6.3-26.5-3.4-26.4c-2.4,1.1-4.4,1.2-5.8,3.4c-2.6,4.2-1.5,11.3-2.4,17.3c-1.9,11.8-2,24-4.6,35
		c-4.5,19.4-27.6,46.5-45.4,51.8c-13.7,4.2-7-11.1-4.8-16.1c5.6-12.8,17-34.2,30.2-38.9c3.9,0.2,3.8,5.1,7,6.5
		c4.4,1.9,8.7-3.3,8.2-7.2c-0.9-6.6-12.1-12-19.2-8.9c-15.1,6.7-23.1,23-32.2,36c-3.6,5.1-10.8,9.5-15.8,13.2
		c-2.3,1.7-16.9,12.7-21.6,9.6c-3.1-2-3.1-21.4-3.1-27.8c0-17,2.7-32.1,6.2-46.8c1.4-5.8,4.8-15.1,3.4-21.1c-3-1.9-9.7-3.6-12.5,0
		c-3.4,4.4-1.8,14-2.9,20.6c-1,8.5-2.1,17-3.1,25.4c-1,4.2-2.1,8.5-3.1,12.7c-3.1-7.5-1.5-15.8-7.7-20.4c-1.8-1.3-5.1-1.4-7.9-1
		c-11.7,1.8-16,4.9-22.3,11.5c-5.8,6.2-10.9,13.3-15.4,20.9c-1.5,3.2-3,6.4-4.6,9.6c-4.4,6.4-15,14-21.6,18.5
		c-4.1,2.8-13.7,10.3-21.4,8.6c-5.4-1.1-6.2-7.3-7.4-12.7c-3.6-16.1,3.7-30.3,1.9-45.6c-1.9-1.2-3.7-0.9-5.8,0
		c-4.7,2-7.4,5.3-8.6,10.8c-0.2,2-0.5,4-0.7,6c-1.9,1.6-3.8,3.2-5.8,4.8c-8.1,6.5-15,13.5-25,18.2c-2.6,1.2-7.9,3.7-12,2.6
		c-3.9-1-4.7-6.1-5.8-10.1c-2.9-10.7-1.1-28.9-9.1-34.6c-6.2-4.4-14.9,1.9-19,5c-11.6,9.2-26,28.7-32.9,42.5c-0.2,0-0.3,0-0.5,0
		c-0.3-0.4-0.6-0.8-1-1.2c-1.5-4.1,2-16.4,2.9-20.4c4.1-17.5,7.9-33.2,11.8-50.2c2.4-10.2,4.3-23.5-5.3-26.9
		c-9,0.2-8.1,14.1-9.6,22.3c-4.2,23.8-6,47.4-10.8,69.8c-1.2,5.5-5.9,23.9-1.7,26.6c6.3,4.1,11.9-2.5,14.9-5.5
		c4.1-4.1,6.7-9.8,10.1-14.6c5.8-8.3,11.6-16.8,18.2-24.2c2.1-2.4,9.9-11.4,14.4-9.1c4.2,2.1,3.4,9.2,4.3,14.6
		c1.4,8.4,2.3,16.5,6,22.6c3.9,6.3,13.5,7.9,22.1,4.8c14.2-5.1,21.5-16.5,32.4-24.7c-2.1,21.1,6.4,49.2,29.8,41.8
		c12.1-3.8,19.2-13.6,28.3-20.4c-0.3,21.5,9.4,24.9,26.9,16.1c12.7-6.4,34.1-27.4,38.6-41.3c0.2-0.1,0.3-0.2,0.5-0.2
		c0.3,12.3,5.4,38.2,18.7,35.8c10.1-1.8,16.8-11,23.8-16.3c-0.4,3.7-2.3,8.1-1.4,12.5c2.3,11.3,16.2,9.5,25,5.5
		c12.1-5.5,23.8-16.7,31.4-26.9c2.8-3.9,5.6-7.8,8.4-11.8c0-0.2,0-0.3,0-0.5c0.2,3,0.3,6.1,0.5,9.1c1.2,7.2,1.5,14.4,4.6,19.7
		c10.7,18.6,35.7,5.2,47.3-2.6c3.5,14.3,18.7,23.8,36.7,16.8c15.3-6,27.2-16.2,37.9-26.9c3.1-3.4,6.2-6.9,9.4-10.3
		c-0.6,9.4-9.2,35.9,0.2,38.6c8.4,2.4,10.5-7,13.4-11c6.8-9.7,19.7-25.7,29-32.4c-0.2,23,5.8,38.7,25.7,42
		c12.6,2.1,23.4-4.5,28.1-10.8C1017.2,904.9,1020.6,899.7,1017.7,896.2z M639,905.6c-3.8,2.5-8.5,6.1-14.4,4.3
		c-4.4-6.2-0.4-15.3,2.2-20.9c7.2-15.3,16.3-31,30-39.8c15.3,0.5,3,21.6,12,24.5C666.6,883.7,647.2,900.1,639,905.6z M865.3,847
		c0.6,0.1,1.3,0.2,1.9,0.2c4.4,1.8,3.3,9,1.4,12.7c-5.1,10-15.1,14.6-21.6,22.8c-0.3,0-0.6,0-1,0C847,867.1,854.8,853.4,865.3,847z"
		/>
	<path class="st15" d="M573,803.3c12.6-0.5,12.3,11.4,6,16.3c-3.4,2.7-14.7,2.9-16.6-1.4C560.6,810.6,568.9,806.3,573,803.3z"/>
	<path class="st15" d="M1802.1,807.6c8.4,0,6.9,8.1,5.3,14.4c-3.2,14.4-6.4,28.8-9.6,43.2c-1,5,0.2,15.3-2.9,18.5
		c-3.9,0.1-7.5-0.7-9.8-2.2c-0.3-17.9,4-30.7,7-45.6C1795.1,820.4,1789.6,815.4,1802.1,807.6z"/>
	<path class="st15" d="M1067.2,861.2c9.5,0.4,19.7,0.7,28.8-1c7-10.7,8.1-26.6,12-40.6c1.2-4.3,2.7-11.8,9.6-9.1
		c3.1,1.2,3.8,6,2.9,10.3c-2.4,8.2-4.8,16.3-7.2,24.5c-0.7,2.6-2.8,9.4-0.2,11c3,1.8,10.4,0.3,14.2,0.2c8.3-0.6,16.6-1.3,25-1.9
		c4.3-0.8,10-2.2,14.2-1.4c0.3,0.4,0.6,0.8,1,1.2c0,2.2-1.1,3.9-1,5.3c0.4,3.1,1.2,7.3,0.5,11.5c-0.7,4.3-3.1,16.8-1.4,21.1
		c0-0.2,0-0.3,0-0.5c9.8-13,14.9-26.8,31.2-33.6c4.6-1.9,24.1-3.6,20.4,5.3c-1.7,3.4-7.9,3.8-11.8,5c-5.6,1.8-11.1,4.7-15.4,7.9
		c-11.6,8.8-18.6,22.2-23,38.2c-2,7-1.1,17.6-11,15.1c-5.1-7.1-4-25.5-2.4-36.5c1.6-10.4-1.4-18.9-1.4-28.6
		c-10.6,1.4-21.1,2.9-31.7,4.3c-3.8,0.7-9.4,0.3-11,3.1c-0.6,2.8-1.3,5.6-1.9,8.4c-1.5,6.8-3,13.6-4.6,20.4c-0.9,3.5-2.8,8.5-2.2,13
		c1.2,4.3,2.4,8.6,3.6,13c0.8,4.5-3,9-7,9.1c-16-6.6-7.2-34.7-3.8-49.2c0.9-4.3,1.8-8.6,2.6-13c-1.2-4.3-13.8,0.1-18.2-0.7
		C1071.4,872,1067.6,868.3,1067.2,861.2z"/>
	<path class="st15" d="M341.2,870.5c8.8-0.4,19.6,4,14.2,12.5c-5,1.2-9-0.7-13.2-1.4c-4,0.2-8,0.3-12,0.5c-7.5-1.1-17.2-1.1-24.7,0
		c-4.9,0.7-14.6,1.1-16.3-2.2c-3.5-6.3,5.3-7.1,9.6-7.9C310.3,869.7,329.9,875,341.2,870.5z"/>
	<path class="st15" d="M1786,902.2c4.7-0.1,7,1.7,9.1,4.1c-0.1,7.1-6.5,18.6-13.9,13.4C1774.2,914.8,1782.9,904.5,1786,902.2z"/>
</g>
</svg>
